<svg width="24" height="20" viewBox="0 0 24 20" fill="none" xmlns="http://www.w3.org/2000/svg">
<path d="M19.7422 0.607481C20.8375 -0.313114 22.4719 -0.171336 23.3926 0.923887C23.7694 1.37227 23.9649 1.91113 23.9932 2.45416H24V17.4542C24 18.3578 23.267 19.0909 22.3633 19.0909H19.6367C19.5293 19.0909 19.4225 19.0695 19.3232 19.0284C19.224 18.9873 19.1336 18.9275 19.0576 18.8516C18.9817 18.7757 18.922 18.6851 18.8809 18.586C18.8397 18.4867 18.8184 18.38 18.8184 18.2725V8.15338L12.7021 13.295C12.5056 13.4601 12.2567 13.5499 12 13.5499C11.7433 13.5498 11.4944 13.4602 11.2979 13.295L5.18164 8.15338V18.2725C5.18164 18.38 5.16026 18.4867 5.11914 18.586C5.07803 18.6851 5.01826 18.7757 4.94238 18.8516C4.86645 18.9275 4.77594 18.9873 4.67676 19.0284C4.57749 19.0695 4.47073 19.0909 4.36328 19.0909H1.63672C0.733039 19.0909 0 18.3578 0 17.4542V2.45416H0.00683594C0.0351471 1.91111 0.230598 1.37222 0.607422 0.923887C1.52809 -0.171448 3.16241 -0.313046 4.25781 0.607481L12 7.11529L19.7422 0.607481Z" fill="white"/>
</svg>
